<?xml version="1.0" encoding="utf-8"?>
<!-- Generator: Adobe Illustrator 19.2.0, SVG Export Plug-In . SVG Version: 6.00 Build 0)  -->
<svg version="1.1" id="Layer_1" xmlns="http://www.w3.org/2000/svg" xmlns:xlink="http://www.w3.org/1999/xlink" x="0px" y="0px"
	 viewBox="0 0 512 512" style="enable-background:new 0 0 512 512;" xml:space="preserve">
<style type="text/css">
	.st0{fill:#fff;}
</style>
<g>
	<path class="st0" d="M256,486.6c-2.7,0-5.5-1-7.5-3.1L43.2,278.2c-52.7-52.7-52.7-138.4,0-191c25.5-25.5,59.4-39.6,95.5-39.6
		s70,14.1,95.5,39.6L256,109l21.8-21.8c25.5-25.5,59.4-39.6,95.5-39.6s70,14.1,95.5,39.6s39.6,59.4,39.6,95.5s-14.1,70-39.6,95.5
		L263.5,483.4C261.5,485.5,258.7,486.6,256,486.6z M138.7,68.9c-30.4,0-59,11.8-80.4,33.3C36.8,123.7,25,152.3,25,182.6
		c0,30.4,11.8,59,33.3,80.4L256,460.8l197.7-197.7c21.5-21.5,33.3-50.1,33.3-80.4c0-30.4-11.8-59-33.3-80.4
		C432.2,80.8,403.6,69,373.3,69s-58.9,11.8-80.4,33.3l-29.3,29.3c-4.2,4.2-10.9,4.2-15.1,0l-29.3-29.3
		C197.6,80.7,169.1,68.9,138.7,68.9z"/>
</g>
<g>
	<path class="st0" d="M256,316L256,316c-5.5,0-10-4.5-10-10V206c0-5.5,4.5-10,10-10l0,0c5.5,0,10,4.5,10,10v100
		C266,311.5,261.5,316,256,316z"/>
</g>
<g>
	<path class="st0" d="M196,256L196,256c0-5.5,4.5-10,10-10h100c5.5,0,10,4.5,10,10l0,0c0,5.5-4.5,10-10,10H206
		C200.5,266,196,261.5,196,256z"/>
</g>
</svg>
