<?xml version="1.0" encoding="UTF-8" standalone="no"?>
<svg width="16px" height="15px" viewBox="0 0 16 15" version="1.1" xmlns="http://www.w3.org/2000/svg" xmlns:xlink="http://www.w3.org/1999/xlink">
    <!-- Generator: Sketch 3.7.2 (28276) - http://www.bohemiancoding.com/sketch -->
    <title>list</title>
    <desc>Created with Sketch.</desc>
    <defs>
        <path d="M0,1.5 C0,2.328 0.672,3 1.5,3 C2.329,3 3,2.328 3,1.5 C3,0.671 2.329,0 1.5,0 C0.672,0 0,0.671 0,1.5 L0,1.5 Z" id="path-1"></path>
        <path d="M0,1.5 C0,2.328 0.672,3 1.5,3 C2.329,3 3,2.328 3,1.5 C3,0.671 2.329,0 1.5,0 C0.672,0 0,0.671 0,1.5 L0,1.5 Z" id="path-3"></path>
        <path d="M0,1.5 C0,2.329 0.672,3 1.5,3 C2.329,3 3,2.329 3,1.5 C3,0.672 2.329,0 1.5,0 C0.672,0 0,0.672 0,1.5 L0,1.5 Z" id="path-5"></path>
    </defs>
    <g id="presentasjon" stroke="none" stroke-width="1" fill="none" fill-rule="evenodd">
        <g id="list">
            <g id="Group-7" transform="translate(0.000000, 1.000000)" fill="#666666">
                <path d="M8.5,1 L1,1 C0.724,1 0.5,0.776 0.5,0.5 C0.5,0.224 0.724,0 1,0 L8.5,0 C8.776,0 9,0.224 9,0.5 C9,0.776 8.776,1 8.5,1" id="Fill-1"></path>
                <path d="M8.5,7 L1,7 C0.724,7 0.5,6.776 0.5,6.5 C0.5,6.224 0.724,6 1,6 L8.5,6 C8.776,6 9,6.224 9,6.5 C9,6.776 8.776,7 8.5,7" id="Fill-3"></path>
                <path d="M8.5,13 L1,13 C0.724,13 0.5,12.776 0.5,12.5 C0.5,12.224 0.724,12 1,12 L8.5,12 C8.776,12 9,12.224 9,12.5 C9,12.776 8.776,13 8.5,13" id="Fill-5"></path>
            </g>
            <g id="Group-10" transform="translate(13.000000, 0.000000)">
                <mask id="mask-2" fill="white">
                    <use xlink:href="#path-1"></use>
                </mask>
                <g id="Clip-9"></g>
                <path d="M1.5,1 C1.225,1 1,1.224 1,1.5 C1,1.776 1.225,2 1.5,2 C1.775,2 2,1.776 2,1.5 C2,1.224 1.775,1 1.5,1 M1.5,4 C0.121,4 -1,2.878 -1,1.5 C-1,0.122 0.121,-1 1.5,-1 C2.879,-1 4,0.122 4,1.5 C4,2.878 2.879,4 1.5,4" id="Fill-8" fill="#666666" mask="url(#mask-2)"></path>
            </g>
            <g id="Group-13" transform="translate(13.000000, 6.000000)">
                <mask id="mask-4" fill="white">
                    <use xlink:href="#path-3"></use>
                </mask>
                <g id="Clip-12"></g>
                <path d="M1.5,1 C1.225,1 1,1.224 1,1.5 C1,1.776 1.225,2 1.5,2 C1.775,2 2,1.776 2,1.5 C2,1.224 1.775,1 1.5,1 M1.5,4 C0.121,4 -1,2.879 -1,1.5 C-1,0.122 0.121,-1 1.5,-1 C2.879,-1 4,0.122 4,1.5 C4,2.879 2.879,4 1.5,4" id="Fill-11" fill="#666666" mask="url(#mask-4)"></path>
            </g>
            <g id="Group-16" transform="translate(13.000000, 12.000000)">
                <mask id="mask-6" fill="white">
                    <use xlink:href="#path-5"></use>
                </mask>
                <g id="Clip-15"></g>
                <path d="M1.5,1 C1.225,1 1,1.225 1,1.5 C1,1.775 1.225,2 1.5,2 C1.775,2 2,1.775 2,1.5 C2,1.225 1.775,1 1.5,1 M1.5,4 C0.121,4 -1,2.879 -1,1.5 C-1,0.121 0.121,-1 1.5,-1 C2.879,-1 4,0.121 4,1.5 C4,2.879 2.879,4 1.5,4" id="Fill-14" fill="#666666" mask="url(#mask-6)"></path>
            </g>
        </g>
    </g>
</svg>